<svg width="200" height="200" viewBox="0 0 200 200" xmlns="http://www.w3.org/2000/svg">
  <defs>
    <!-- Modern dark blue gradient -->
    <linearGradient id="circleGradient" x1="0%" y1="0%" x2="100%" y2="100%">
      <stop offset="0%" style="stop-color:#1e3a8a;stop-opacity:1" />
      <stop offset="50%" style="stop-color:#1e40af;stop-opacity:1" />
      <stop offset="100%" style="stop-color:#3b82f6;stop-opacity:1" />
    </linearGradient>
    
    <!-- Accent gradient -->
    <linearGradient id="accentGradient" x1="0%" y1="0%" x2="100%" y2="0%">
      <stop offset="0%" style="stop-color:#60a5fa;stop-opacity:1" />
      <stop offset="100%" style="stop-color:#93c5fd;stop-opacity:1" />
    </linearGradient>
    
    <!-- Modern shadow filter -->
    <filter id="circleShadow" x="-50%" y="-50%" width="200%" height="200%">
      <feDropShadow dx="0" dy="8" stdDeviation="12" flood-color="#000000" flood-opacity="0.2"/>
      <feDropShadow dx="0" dy="4" stdDeviation="6" flood-color="#000000" flood-opacity="0.15"/>
    </filter>
    
    <!-- Inner glow filter -->
    <filter id="innerGlow" x="-50%" y="-50%" width="200%" height="200%">
      <feGaussianBlur stdDeviation="2" result="coloredBlur"/>
      <feMerge> 
        <feMergeNode in="coloredBlur"/>
        <feMergeNode in="SourceGraphic"/>
      </feMerge>
    </filter>
  </defs>
  
  <!-- Main circular background -->
  <circle cx="100" cy="100" r="90" fill="url(#circleGradient)" filter="url(#circleShadow)"/>
  
  <!-- Inner circle for depth -->
  <circle cx="100" cy="100" r="75" fill="none" stroke="rgba(255,255,255,0.15)" stroke-width="1"/>
  
  <!-- THS Text with modern typography -->
  <text x="100" y="110" font-family="'Segoe UI', Arial, sans-serif" font-size="48" font-weight="900" 
        text-anchor="middle" fill="white" filter="url(#innerGlow)" letter-spacing="3">
    THS
  </text>
  
  <!-- Modern music notes with better positioning -->
  <g fill="white" opacity="0.95">
    <!-- Eighth note - top left -->
    <ellipse cx="70" cy="60" rx="3" ry="2.5" fill="white"/>
    <line x1="73" y1="60" x2="73" y2="80" stroke="white" stroke-width="2.5" stroke-linecap="round"/>
    <ellipse cx="73" cy="80" rx="4" ry="3" fill="white"/>
    
    <!-- Quarter note - top right -->
    <ellipse cx="130" cy="65" rx="3" ry="2.5" fill="white"/>
    <line x1="133" y1="65" x2="133" y2="85" stroke="white" stroke-width="2.5" stroke-linecap="round"/>
    <ellipse cx="133" cy="85" rx="4" ry="3" fill="white"/>
    
    <!-- Sixteenth note - bottom left -->
    <ellipse cx="65" cy="130" rx="3" ry="2.5" fill="white"/>
    <line x1="68" y1="130" x2="68" y2="150" stroke="white" stroke-width="2.5" stroke-linecap="round"/>
    <ellipse cx="68" cy="150" rx="4" ry="3" fill="white"/>
    
    <!-- Whole note - bottom right -->
    <ellipse cx="135" cy="125" rx="4" ry="3" fill="white" stroke="white" stroke-width="1"/>
    <ellipse cx="145" cy="125" rx="4" ry="3" fill="white" stroke="white" stroke-width="1"/>
  </g>
  
  <!-- Decorative corner elements -->
  <circle cx="100" cy="25" r="2" fill="url(#accentGradient)" opacity="0.8"/>
  <circle cx="100" cy="175" r="2" fill="url(#accentGradient)" opacity="0.8"/>
  <circle cx="25" cy="100" r="2" fill="url(#accentGradient)" opacity="0.8"/>
  <circle cx="175" cy="100" r="2" fill="url(#accentGradient)" opacity="0.8"/>
  
  <!-- Subtle inner highlight -->
  <circle cx="85" cy="85" r="12" fill="rgba(255,255,255,0.08)"/>
  
  <!-- Geometric accent lines -->
  <line x1="60" y1="60" x2="80" y2="80" stroke="rgba(255,255,255,0.1)" stroke-width="1" opacity="0.6"/>
  <line x1="140" y1="60" x2="120" y2="80" stroke="rgba(255,255,255,0.1)" stroke-width="1" opacity="0.6"/>
  <line x1="60" y1="140" x2="80" y2="120" stroke="rgba(255,255,255,0.1)" stroke-width="1" opacity="0.6"/>
  <line x1="140" y1="140" x2="120" y2="120" stroke="rgba(255,255,255,0.1)" stroke-width="1" opacity="0.6"/>
</svg>
